<?xml version="1.0" encoding="utf-8"?>
<!-- Generator: Adobe Illustrator 24.2.0, SVG Export Plug-In . SVG Version: 6.00 Build 0)  -->
<svg version="1.1" id="图层_1" xmlns="http://www.w3.org/2000/svg" xmlns:xlink="http://www.w3.org/1999/xlink" x="0px" y="0px"
	 viewBox="0 0 24 24" style="enable-background:new 0 0 24 24;" xml:space="preserve">
<g>
	<path d="M23,24c-0.26,0-0.51-0.1-0.71-0.29l-4.4-4.4c-1.05-1.05-1.19-2.69-0.34-3.92c1.2-1.73,1.71-3.85,1.45-5.97
		c-0.48-3.78-3.57-6.87-7.35-7.35C8.98,1.73,6.38,2.62,4.5,4.5c-1.88,1.88-2.76,4.48-2.43,7.15c0.49,3.87,3.66,6.97,7.54,7.37
		c1.68,0.18,3.35-0.14,4.83-0.9c0.49-0.26,1.09-0.06,1.35,0.43c0.25,0.49,0.06,1.09-0.43,1.35c-1.83,0.94-3.89,1.33-5.96,1.11
		c-4.8-0.5-8.72-4.33-9.32-9.11c-0.41-3.28,0.68-6.49,3-8.81c2.32-2.32,5.53-3.41,8.81-3c4.67,0.59,8.49,4.41,9.08,9.08
		c0.33,2.61-0.31,5.23-1.79,7.36c-0.3,0.43-0.25,1,0.11,1.36l4.4,4.4c0.39,0.39,0.39,1.02,0,1.41C23.51,23.9,23.26,24,23,24z"/>
</g>
<g>
	<path d="M6.13,11.9c-0.55,0-1-0.45-1-1c0-3.18,2.59-5.77,5.77-5.77c0.55,0,1,0.45,1,1s-0.45,1-1,1c-2.08,0-3.77,1.69-3.77,3.77
		C7.13,11.45,6.69,11.9,6.13,11.9z"/>
</g>
</svg>
